<svg width="24" height="24" viewBox="0 0 24 24" fill="none" xmlns="http://www.w3.org/2000/svg">
<mask id="path-1-inside-1_1113_121" fill="white">
<path d="M7.443 5.34961C8.082 5.34961 8.673 5.39961 9.213 5.54761C9.754 5.64661 10.197 5.84461 10.59 6.09161C10.984 6.33861 11.279 6.68561 11.475 7.13061C11.672 7.57561 11.771 8.12061 11.771 8.71361C11.771 9.40661 11.623 9.99961 11.279 10.4446C10.984 10.8906 10.492 11.2856 9.902 11.5826C10.738 11.8306 11.377 12.2756 11.771 12.8686C12.164 13.4626 12.41 14.2046 12.41 15.0456C12.41 15.7386 12.262 16.3316 12.016 16.8266C11.771 17.3216 11.377 17.7666 10.934 18.0636C10.4528 18.382 9.92084 18.616 9.361 18.7556C8.771 18.9046 8.181 19.0036 7.591 19.0036H1V5.34961H7.443ZM7.049 10.8896C7.59 10.8896 8.033 10.7416 8.377 10.4946C8.721 10.2476 8.869 9.80161 8.869 9.25761C8.869 8.96061 8.819 8.66361 8.721 8.46661C8.623 8.26861 8.475 8.11961 8.279 7.97161C8.07851 7.85924 7.863 7.77607 7.639 7.72461C7.393 7.67461 7.148 7.67461 6.852 7.67461H4V10.8906L7.049 10.8896ZM7.197 16.7276C7.492 16.7276 7.787 16.6776 8.033 16.6286C8.279 16.5786 8.525 16.4806 8.721 16.3316C8.92138 16.1868 9.08903 16.0015 9.213 15.7876C9.311 15.5406 9.41 15.2436 9.41 14.8976C9.41 14.2046 9.213 13.7096 8.82 13.3636C8.426 13.0666 7.885 12.9186 7.246 12.9186H4V16.7286L7.197 16.7276ZM16.689 16.6776C17.082 17.0736 17.672 17.2716 18.459 17.2716C19 17.2716 19.492 17.1236 19.885 16.8766C20.279 16.5796 20.525 16.2826 20.623 15.9856H23.033C22.639 17.1726 22.049 18.0136 21.263 18.5576C20.475 19.0526 19.541 19.3496 18.41 19.3496C17.6864 19.3518 16.9688 19.2175 16.295 18.9536C15.6887 18.7262 15.148 18.3525 14.721 17.8656C14.2643 17.4102 13.9267 16.8494 13.738 16.2326C13.492 15.5896 13.393 14.8976 13.393 14.1056C13.393 13.3636 13.492 12.6716 13.738 12.0276C13.9748 11.4076 14.3251 10.8372 14.771 10.3456C15.213 9.90061 15.754 9.50561 16.344 9.25761C17.0007 8.99367 17.7022 8.8592 18.41 8.86161C19.246 8.86161 19.984 9.01061 20.623 9.35661C21.263 9.70261 21.754 10.0986 22.147 10.6926C22.541 11.2366 22.837 11.8796 23.033 12.5726C23.131 13.2646 23.18 13.9576 23.131 14.7486H16C16 15.5406 16.295 16.2826 16.689 16.6786M19.787 11.4846C19.443 11.1386 18.902 10.9406 18.262 10.9406C17.8867 10.935 17.5156 11.0197 17.18 11.1876C16.885 11.3366 16.689 11.5346 16.492 11.7326C16.311 11.9239 16.1912 12.1648 16.148 12.4246C16.098 12.6726 16.049 12.8696 16.049 13.0676H20.475C20.377 12.3256 20.131 11.8316 19.787 11.4846ZM15.459 6.28961H20.967V7.62561H15.46L15.459 6.28961Z"/>
</mask>
<path d="M7.443 5.34961C8.082 5.34961 8.673 5.39961 9.213 5.54761C9.754 5.64661 10.197 5.84461 10.59 6.09161C10.984 6.33861 11.279 6.68561 11.475 7.13061C11.672 7.57561 11.771 8.12061 11.771 8.71361C11.771 9.40661 11.623 9.99961 11.279 10.4446C10.984 10.8906 10.492 11.2856 9.902 11.5826C10.738 11.8306 11.377 12.2756 11.771 12.8686C12.164 13.4626 12.41 14.2046 12.41 15.0456C12.41 15.7386 12.262 16.3316 12.016 16.8266C11.771 17.3216 11.377 17.7666 10.934 18.0636C10.4528 18.382 9.92084 18.616 9.361 18.7556C8.771 18.9046 8.181 19.0036 7.591 19.0036H1V5.34961H7.443ZM7.049 10.8896C7.59 10.8896 8.033 10.7416 8.377 10.4946C8.721 10.2476 8.869 9.80161 8.869 9.25761C8.869 8.96061 8.819 8.66361 8.721 8.46661C8.623 8.26861 8.475 8.11961 8.279 7.97161C8.07851 7.85924 7.863 7.77607 7.639 7.72461C7.393 7.67461 7.148 7.67461 6.852 7.67461H4V10.8906L7.049 10.8896ZM7.197 16.7276C7.492 16.7276 7.787 16.6776 8.033 16.6286C8.279 16.5786 8.525 16.4806 8.721 16.3316C8.92138 16.1868 9.08903 16.0015 9.213 15.7876C9.311 15.5406 9.41 15.2436 9.41 14.8976C9.41 14.2046 9.213 13.7096 8.82 13.3636C8.426 13.0666 7.885 12.9186 7.246 12.9186H4V16.7286L7.197 16.7276ZM16.689 16.6776C17.082 17.0736 17.672 17.2716 18.459 17.2716C19 17.2716 19.492 17.1236 19.885 16.8766C20.279 16.5796 20.525 16.2826 20.623 15.9856H23.033C22.639 17.1726 22.049 18.0136 21.263 18.5576C20.475 19.0526 19.541 19.3496 18.41 19.3496C17.6864 19.3518 16.9688 19.2175 16.295 18.9536C15.6887 18.7262 15.148 18.3525 14.721 17.8656C14.2643 17.4102 13.9267 16.8494 13.738 16.2326C13.492 15.5896 13.393 14.8976 13.393 14.1056C13.393 13.3636 13.492 12.6716 13.738 12.0276C13.9748 11.4076 14.3251 10.8372 14.771 10.3456C15.213 9.90061 15.754 9.50561 16.344 9.25761C17.0007 8.99367 17.7022 8.8592 18.41 8.86161C19.246 8.86161 19.984 9.01061 20.623 9.35661C21.263 9.70261 21.754 10.0986 22.147 10.6926C22.541 11.2366 22.837 11.8796 23.033 12.5726C23.131 13.2646 23.18 13.9576 23.131 14.7486H16C16 15.5406 16.295 16.2826 16.689 16.6786M19.787 11.4846C19.443 11.1386 18.902 10.9406 18.262 10.9406C17.8867 10.935 17.5156 11.0197 17.18 11.1876C16.885 11.3366 16.689 11.5346 16.492 11.7326C16.311 11.9239 16.1912 12.1648 16.148 12.4246C16.098 12.6726 16.049 12.8696 16.049 13.0676H20.475C20.377 12.3256 20.131 11.8316 19.787 11.4846ZM15.459 6.28961H20.967V7.62561H15.46L15.459 6.28961Z" fill="#5C5C5C"/>
<path d="M9.213 5.54761L8.94867 6.51204L8.99042 6.52348L9.033 6.53127L9.213 5.54761ZM10.59 6.09161L10.0579 6.93827L10.0588 6.93888L10.59 6.09161ZM11.475 7.13061L10.5598 7.53369L10.5606 7.53541L11.475 7.13061ZM11.279 10.4446L10.4878 9.83301L10.4653 9.86218L10.4449 9.89293L11.279 10.4446ZM9.902 11.5826L9.45237 10.6894L7.19885 11.8238L9.6176 12.5413L9.902 11.5826ZM11.771 12.8686L12.605 12.3168L12.6039 12.3152L11.771 12.8686ZM12.016 16.8266L11.1205 16.3816L11.1198 16.383L12.016 16.8266ZM10.934 18.0636L11.4858 18.8976L11.4909 18.8942L10.934 18.0636ZM9.361 18.7556L9.11901 17.7853L9.11615 17.786L9.361 18.7556ZM1 19.0036H0V20.0036H1V19.0036ZM1 5.34961V4.34961H0V5.34961H1ZM7.049 10.8896V9.88961H7.04867L7.049 10.8896ZM8.721 8.46661L7.82477 8.9102L7.82567 8.912L8.721 8.46661ZM8.279 7.97161L8.8816 7.17357L8.82728 7.13255L8.76791 7.09927L8.279 7.97161ZM7.639 7.72461L7.8629 6.75L7.85057 6.74717L7.83818 6.74465L7.639 7.72461ZM4 7.67461V6.67461H3V7.67461H4ZM4 10.8906H3V11.8909L4.00033 11.8906L4 10.8906ZM7.197 16.7276V15.7276H7.19669L7.197 16.7276ZM8.033 16.6286L8.22835 17.6094L8.23218 17.6086L8.033 16.6286ZM8.721 16.3316L8.13539 15.521L8.12551 15.5282L8.11581 15.5355L8.721 16.3316ZM9.213 15.7876L10.0782 16.2891L10.1152 16.2251L10.1425 16.1564L9.213 15.7876ZM8.82 13.3636L9.4808 12.613L9.45228 12.5879L9.42194 12.5651L8.82 13.3636ZM4 12.9186V11.9186H3V12.9186H4ZM4 16.7286H3V17.7289L4.00031 17.7286L4 16.7286ZM19.885 16.8766L20.4171 17.7233L20.4531 17.7007L20.4869 17.6751L19.885 16.8766ZM20.623 15.9856V14.9856H19.8999L19.6734 15.6723L20.623 15.9856ZM23.033 15.9856L23.9821 16.3006L24.4186 14.9856H23.033V15.9856ZM21.263 18.5576L21.7949 19.4044L21.8138 19.3926L21.8321 19.3799L21.263 18.5576ZM18.41 19.3496V18.3496L18.4069 18.3496L18.41 19.3496ZM16.295 18.9536L16.6597 18.0225L16.6529 18.0198L16.6461 18.0173L16.295 18.9536ZM14.721 17.8656L15.4728 17.2063L15.4508 17.1811L15.4271 17.1575L14.721 17.8656ZM13.738 16.2326L14.6942 15.94L14.6842 15.9073L14.672 15.8753L13.738 16.2326ZM13.738 12.0276L14.6722 12.3844L14.6722 12.3844L13.738 12.0276ZM14.771 10.3456L14.0615 9.6409L14.0455 9.65699L14.0303 9.6738L14.771 10.3456ZM16.344 9.25761L15.9711 8.32975L15.9638 8.33269L15.9565 8.33574L16.344 9.25761ZM18.41 8.86161L18.4066 9.86161H18.41V8.86161ZM20.623 9.35661L20.1468 10.236L20.1474 10.2363L20.623 9.35661ZM22.147 10.6926L21.313 11.2444L21.3247 11.262L21.3371 11.2792L22.147 10.6926ZM23.033 12.5726L24.0231 12.4324L24.0136 12.3655L23.9953 12.3005L23.033 12.5726ZM23.131 14.7486V15.7486H24.071L24.1291 14.8104L23.131 14.7486ZM16 14.7486V13.7486H15V14.7486H16ZM19.787 11.4846L20.4972 10.7806L20.4962 10.7796L19.787 11.4846ZM18.262 10.9406L18.247 11.9405L18.2545 11.9406H18.262V10.9406ZM17.18 11.1876L16.7326 10.2933L16.7292 10.295L17.18 11.1876ZM16.492 11.7326L15.7831 11.0273L15.7743 11.0361L15.7657 11.0452L16.492 11.7326ZM16.148 12.4246L17.1283 12.6222L17.1317 12.6055L17.1345 12.5886L16.148 12.4246ZM16.049 13.0676H15.049V14.0676H16.049V13.0676ZM20.475 13.0676V14.0676H21.6158L21.4664 12.9367L20.475 13.0676ZM15.459 6.28961V5.28961H14.4583L14.459 6.29036L15.459 6.28961ZM20.967 6.28961H21.967V5.28961H20.967V6.28961ZM20.967 7.62561V8.62561H21.967V7.62561H20.967ZM15.46 7.62561L14.46 7.62636L14.4607 8.62561H15.46V7.62561ZM7.443 6.34961C8.03607 6.34961 8.52847 6.39687 8.94867 6.51204L9.47733 4.58318C8.81754 4.40234 8.12793 4.34961 7.443 4.34961V6.34961ZM9.033 6.53127C9.42842 6.60364 9.75323 6.74681 10.0579 6.93827L11.1221 5.24495C10.6408 4.94241 10.0796 4.68958 9.39301 4.56394L9.033 6.53127ZM10.0588 6.93888C10.2744 7.07404 10.4402 7.26207 10.5598 7.53369L12.3902 6.72753C12.1178 6.10915 11.6936 5.60318 11.1212 5.24434L10.0588 6.93888ZM10.5606 7.53541C10.6883 7.82378 10.771 8.22418 10.771 8.71361H12.771C12.771 8.01704 12.6557 7.32744 12.3894 6.72581L10.5606 7.53541ZM10.771 8.71361C10.771 9.27768 10.6491 9.6244 10.4878 9.83301L12.0702 11.0562C12.5969 10.3748 12.771 9.53554 12.771 8.71361H10.771ZM10.4449 9.89293C10.2739 10.1515 9.93884 10.4445 9.45237 10.6894L10.3516 12.4758C11.0452 12.1267 11.6941 11.6297 12.1131 10.9963L10.4449 9.89293ZM9.6176 12.5413C10.2747 12.7362 10.698 13.0606 10.9381 13.422L12.6039 12.3152C12.056 11.4906 11.2013 10.925 10.1864 10.6239L9.6176 12.5413ZM10.937 13.4204C11.2234 13.8532 11.41 14.4038 11.41 15.0456H13.41C13.41 14.0054 13.1046 13.072 12.605 12.3168L10.937 13.4204ZM11.41 15.0456C11.41 15.5927 11.2941 16.0323 11.1205 16.3816L12.9115 17.2717C13.2299 16.6309 13.41 15.8845 13.41 15.0456H11.41ZM11.1198 16.383C10.9524 16.7212 10.6756 17.0329 10.3771 17.233L11.4909 18.8942C12.0784 18.5003 12.5896 17.9221 12.9122 17.2702L11.1198 16.383ZM10.3822 17.2296C9.99579 17.4853 9.5686 17.6732 9.11901 17.7853L9.60299 19.7259C10.2731 19.5588 10.9098 19.2787 11.4858 18.8976L10.3822 17.2296ZM9.11615 17.786C8.57454 17.9228 8.07116 18.0036 7.591 18.0036V20.0036C8.29084 20.0036 8.96746 19.8864 9.60585 19.7252L9.11615 17.786ZM7.591 18.0036H1V20.0036H7.591V18.0036ZM2 19.0036V5.34961H0V19.0036H2ZM1 6.34961H7.443V4.34961H1V6.34961ZM7.049 11.8896C7.77945 11.8896 8.43084 11.687 8.96025 11.3069L7.79375 9.68231C7.63516 9.79619 7.40055 9.88961 7.049 9.88961V11.8896ZM8.96025 11.3069C9.68578 10.786 9.869 9.94034 9.869 9.25761H7.869C7.869 9.44498 7.84273 9.56517 7.8173 9.63204C7.79479 9.69125 7.78036 9.69193 7.79375 9.68231L8.96025 11.3069ZM9.869 9.25761C9.869 8.8831 9.8108 8.41212 9.61633 8.02121L7.82567 8.912C7.82007 8.90076 7.83398 8.92709 7.84791 9.00366C7.86082 9.0746 7.869 9.16276 7.869 9.25761H9.869ZM9.61723 8.02302C9.42316 7.63091 9.14149 7.36981 8.8816 7.17357L7.6764 8.76965C7.74378 8.82053 7.77956 8.85421 7.79941 8.87588C7.81656 8.8946 7.82192 8.90444 7.82477 8.9102L9.61723 8.02302ZM8.76791 7.09927C8.4844 6.94038 8.17965 6.82276 7.8629 6.75L7.4151 8.69922C7.54635 8.72937 7.67262 8.77811 7.79009 8.84394L8.76791 7.09927ZM7.83818 6.74465C7.47611 6.67105 7.12754 6.67461 6.852 6.67461V8.67461C7.16846 8.67461 7.30989 8.67816 7.43982 8.70457L7.83818 6.74465ZM6.852 6.67461H4V8.67461H6.852V6.67461ZM3 7.67461V10.8906H5V7.67461H3ZM4.00033 11.8906L7.04933 11.8896L7.04867 9.88961L3.99967 9.89061L4.00033 11.8906ZM7.197 17.7276C7.59412 17.7276 7.96807 17.6612 8.22835 17.6093L7.83765 15.6479C7.60593 15.694 7.38988 15.7276 7.197 15.7276V17.7276ZM8.23218 17.6086C8.59005 17.5358 8.98452 17.3874 9.32619 17.1277L8.11581 15.5355C8.06548 15.5738 7.96795 15.6214 7.83382 15.6486L8.23218 17.6086ZM9.30661 17.1422C9.62085 16.9152 9.88374 16.6245 10.0782 16.2891L8.34784 15.2861C8.29431 15.3785 8.22192 15.4585 8.13539 15.521L9.30661 17.1422ZM10.1425 16.1564C10.2553 15.8722 10.41 15.4343 10.41 14.8976H8.41C8.41 15.0529 8.36674 15.209 8.28349 15.4188L10.1425 16.1564ZM10.41 14.8976C10.41 14.0017 10.1456 13.1983 9.4808 12.613L8.1592 14.1142C8.2804 14.2209 8.41 14.4075 8.41 14.8976H10.41ZM9.42194 12.5651C8.80295 12.0985 8.02731 11.9186 7.246 11.9186V13.9186C7.74269 13.9186 8.04905 14.0347 8.21806 14.1621L9.42194 12.5651ZM7.246 11.9186H4V13.9186H7.246V11.9186ZM3 12.9186V16.7286H5V12.9186H3ZM4.00031 17.7286L7.19731 17.7276L7.19669 15.7276L3.99969 15.7286L4.00031 17.7286ZM15.9792 17.382C16.6258 18.0336 17.5164 18.2716 18.459 18.2716V16.2716C17.8276 16.2716 17.5382 16.1136 17.3988 15.9732L15.9792 17.382ZM18.459 18.2716C19.1817 18.2716 19.8593 18.0739 20.4171 17.7233L19.3529 16.0299C19.1247 16.1733 18.8183 16.2716 18.459 16.2716V18.2716ZM20.4869 17.6751C20.9568 17.3209 21.3837 16.8717 21.5726 16.299L19.6734 15.6723C19.6663 15.6935 19.6012 15.8383 19.2831 16.0781L20.4869 17.6751ZM20.623 16.9856H23.033V14.9856H20.623V16.9856ZM22.0839 15.6706C21.7405 16.7053 21.2602 17.3434 20.6939 17.7353L21.8321 19.3799C22.8378 18.6838 23.5375 17.6399 23.9821 16.3006L22.0839 15.6706ZM20.7311 17.7108C20.1029 18.1054 19.3534 18.3496 18.41 18.3496V20.3496C19.7286 20.3496 20.8471 19.9998 21.7949 19.4044L20.7311 17.7108ZM18.4069 18.3496C17.8091 18.3515 17.2163 18.2405 16.6597 18.0225L15.9303 19.8847C16.7213 20.1945 17.5636 20.3522 18.4131 20.3496L18.4069 18.3496ZM16.6461 18.0173C16.1942 17.8478 15.7911 17.5692 15.4728 17.2063L13.9692 18.5249C14.5048 19.1358 15.1832 19.6047 15.9439 19.8899L16.6461 18.0173ZM15.4271 17.1575C15.0866 16.818 14.8349 16.3998 14.6942 15.94L12.7818 16.5252C13.0185 17.2989 13.442 18.0024 14.0149 18.5737L15.4271 17.1575ZM14.672 15.8753C14.4815 15.3775 14.393 14.8139 14.393 14.1056H12.393C12.393 14.9813 12.5025 15.8017 12.804 16.5899L14.672 15.8753ZM14.393 14.1056C14.393 13.4517 14.4803 12.8866 14.6722 12.3844L12.8038 11.6708C12.5037 12.4566 12.393 13.2755 12.393 14.1056H14.393ZM14.6722 12.3844C14.8646 11.8806 15.1494 11.417 15.5117 11.0174L14.0303 9.6738C13.5009 10.2575 13.085 10.9347 12.8038 11.6708L14.6722 12.3844ZM15.4805 11.0503C15.8488 10.6795 16.284 10.3676 16.7315 10.1795L15.9565 8.33574C15.224 8.64362 14.5772 9.12172 14.0615 9.6409L15.4805 11.0503ZM16.7169 10.1855C17.254 9.96961 17.8278 9.85964 18.4066 9.8616L18.4134 7.86162C17.5767 7.85877 16.7474 8.01773 15.9711 8.32975L16.7169 10.1855ZM18.41 9.86161C19.1285 9.86161 19.6917 9.9895 20.1468 10.236L21.0991 8.47725C20.2763 8.03172 19.3635 7.86161 18.41 7.86161V9.86161ZM20.1474 10.2363C20.6825 10.5256 21.0327 10.8208 21.313 11.2444L22.981 10.1408C22.4753 9.37646 21.8435 8.87964 21.0986 8.47693L20.1474 10.2363ZM21.3371 11.2792C21.6522 11.7143 21.9017 12.247 22.0707 12.8448L23.9953 12.3005C23.7723 11.5122 23.4298 10.7589 22.9569 10.106L21.3371 11.2792ZM22.0429 12.7128C22.1337 13.3545 22.1768 13.9781 22.1329 14.6868L24.1291 14.8104C24.1832 13.9371 24.1283 13.1748 24.0231 12.4324L22.0429 12.7128ZM23.131 13.7486H16V15.7486H23.131V13.7486ZM15 14.7486C15 15.7467 15.3623 16.7629 15.9801 17.3839L17.3979 15.9733C17.2277 15.8023 17 15.3345 17 14.7486H15ZM20.4962 10.7796C19.9172 10.1972 19.0928 9.94061 18.262 9.94061V11.9406C18.7112 11.9406 18.9688 12.08 19.0778 12.1897L20.4962 10.7796ZM18.277 9.94072C17.7414 9.93269 17.2117 10.0536 16.7326 10.2933L17.6274 12.0819C17.8196 11.9858 18.0321 11.9373 18.247 11.9405L18.277 9.94072ZM16.7292 10.295C16.2719 10.526 15.9729 10.8365 15.7831 11.0273L17.2009 12.4379C17.4051 12.2327 17.4981 12.1472 17.6308 12.0802L16.7292 10.295ZM15.7657 11.0452C15.4478 11.3811 15.2374 11.8043 15.1615 12.2606L17.1345 12.5886C17.145 12.5253 17.1742 12.4666 17.2183 12.42L15.7657 11.0452ZM15.1677 12.227C15.1319 12.4048 15.049 12.7406 15.049 13.0676H17.049C17.049 12.9986 17.0641 12.9404 17.1283 12.6222L15.1677 12.227ZM16.049 14.0676H20.475V12.0676H16.049V14.0676ZM21.4664 12.9367C21.3463 12.0272 21.0266 11.3146 20.4972 10.7806L19.0768 12.1886C19.2354 12.3486 19.4077 12.624 19.4836 13.1985L21.4664 12.9367ZM15.459 7.28961H20.967V5.28961H15.459V7.28961ZM19.967 6.28961V7.62561H21.967V6.28961H19.967ZM20.967 6.62561H15.46V8.62561H20.967V6.62561ZM16.46 7.62486L16.459 6.28886L14.459 6.29036L14.46 7.62636L16.46 7.62486Z" fill="#5C5C5C" mask="url(#path-1-inside-1_1113_121)"/>
</svg>
