<svg width="24" height="24" viewBox="0 0 24 24" fill="none" xmlns="http://www.w3.org/2000/svg">
<path d="M21.5 13.07V20.5H18.55V14.43C18.55 13.3297 18.2202 12.4689 17.6682 11.8845C17.1169 11.3008 16.379 11.0318 15.6472 11.0578C14.1657 11.1106 12.78 12.3512 12.78 14.43V20.5H9.84V8.98002H12.808L12.7801 10.1481L13.7185 10.4003C14.0636 9.77029 14.7096 9.25431 15.5254 8.93423C16.3386 8.61521 17.2848 8.50613 18.1788 8.65797C19.0698 8.80929 19.8922 9.21598 20.4921 9.91254C21.0891 10.6059 21.5 11.6264 21.5 13.07ZM6.44 4.99977C6.4398 5.3976 6.28158 5.77905 6.00013 6.06021C5.71869 6.34138 5.33708 6.49922 4.93925 6.49902C4.54143 6.49883 4.15998 6.3406 3.87881 6.05915C3.59765 5.77771 3.4398 5.3961 3.44 4.99827C3.4402 4.60045 3.59843 4.219 3.87987 3.93783C4.16132 3.65667 4.54293 3.49882 4.94075 3.49902C5.33858 3.49922 5.72003 3.65745 6.00119 3.93889C6.28236 4.22034 6.4402 4.60195 6.44 4.99977ZM3.5 20.5V8.98002H6.5V20.5H3.5Z" fill="#5C5C5C" stroke="#5C5C5C"/>
</svg>
