<svg width="94" height="28" viewBox="0 0 94 28" fill="none" xmlns="http://www.w3.org/2000/svg">
<path d="M0 15.0427V13.5968H4.33764V15.0427C4.33764 16.1271 4.94936 17.1281 6.67329 17.1281C8.34161 17.1281 8.98113 16.2661 8.98113 14.8759V0.36147H13.4856V15.1539C13.4856 18.6852 10.8719 21.2989 6.7289 21.2989C2.19662 21.2989 0 18.6018 0 15.0427Z" fill="#1F1F1F"/>
<path d="M21.303 21.2989C18.3557 21.2989 16.5205 19.575 16.5205 16.85C16.5205 14.292 18.3279 12.7071 21.6645 12.4568L25.5573 12.1509V11.9285C25.5573 10.566 24.7231 9.8431 23.1938 9.8431C21.3865 9.8431 20.4133 10.5382 20.4133 11.7895H16.8542C16.8542 8.64747 19.4401 6.58987 23.4162 6.58987C27.448 6.58987 29.7281 8.8421 29.7281 12.8183V20.9374H25.9465L25.6685 19.1023C25.2236 20.3813 23.3884 21.2989 21.303 21.2989ZM22.8045 18.1291C24.445 18.1291 25.5851 17.3227 25.5851 15.7378V14.9871L23.4162 15.1817C21.5533 15.3486 20.886 15.7656 20.886 16.6554C20.886 17.6564 21.4977 18.1291 22.8045 18.1291Z" fill="#1F1F1F"/>
<path d="M31.2797 27.6107V24.0238H33.6432C35.0891 24.0238 35.7008 23.5789 36.2569 22.0775L36.5071 21.4101L30.9183 7.03476H35.5061L38.5369 15.9603L41.9014 7.03476H46.3502L39.2877 23.9682C38.1199 26.8044 36.5628 28 34.1159 28C33.0871 28 32.1139 27.861 31.2797 27.6107Z" fill="#1F1F1F"/>
<path d="M52.0623 20.9374L46.6402 7.03476H51.2559L52.9521 11.9007C53.6472 13.9305 54.2033 15.6822 54.3145 16.3217C54.4814 15.5154 55.0931 13.708 55.7882 11.9007L57.6512 7.03476H62.1L56.2887 20.9374H52.0623Z" fill="#1F1F1F"/>
<path d="M65.9763 4.86594C64.6138 4.86594 63.5294 3.78153 63.5294 2.41907C63.5294 1.0566 64.6138 0 65.9763 0C67.3109 0 68.3953 1.0566 68.3953 2.41907C68.3953 3.78153 67.3109 4.86594 65.9763 4.86594ZM63.8631 20.9374V7.03476H68.1451V20.9374H63.8631Z" fill="#1F1F1F"/>
<path d="M75.6395 20.9374H71.3575V7.03476H75.3893L75.6673 8.48063C76.5293 7.285 78.1142 6.58987 79.9215 6.58987C83.2304 6.58987 85.1489 8.70308 85.1489 12.3456V20.9374H80.8669V13.3744C80.8669 11.6226 79.8937 10.4826 78.42 10.4826C76.7239 10.4826 75.6395 11.5948 75.6395 13.3188V20.9374Z" fill="#1F1F1F"/>
<path d="M90.8892 21.2989C89.4712 21.2989 88.3311 20.1589 88.3311 18.7964C88.3311 17.4062 89.4712 16.2661 90.8892 16.2661C92.2517 16.2661 93.4473 17.4062 93.4473 18.7964C93.4473 20.1589 92.2517 21.2989 90.8892 21.2989Z" fill="#5F83E2"/>
</svg>
