<svg width="26" height="26" viewBox="0 0 26 26" fill="none" xmlns="http://www.w3.org/2000/svg">
<path d="M10.195 3.02398C11.2579 0.449827 14.9495 0.587042 15.8183 3.23299L16.7281 6.00389C17.1833 7.39035 18.2216 8.50875 19.5704 9.06566L22.2661 10.1787C24.8403 11.2415 24.703 14.9331 22.0571 15.8019L19.2862 16.7117C17.8997 17.167 16.7813 18.2052 16.2244 19.554L15.1114 22.2497C14.0486 24.8239 10.357 24.6867 9.48819 22.0407L8.57837 19.2698C8.12313 17.8834 7.0849 16.765 5.73606 16.2081L3.04035 15.095C0.466196 14.0322 0.603412 10.3406 3.24936 9.47182L6.02026 8.562C7.40672 8.10676 8.52511 7.06853 9.08203 5.71969L10.195 3.02398Z" fill="#FCC221" stroke="#1F1F1F" stroke-width="2"/>
</svg>
