<svg width="24" height="24" viewBox="0 0 24 24" fill="none" xmlns="http://www.w3.org/2000/svg">
<path d="M13.5608 10.0673L13.3125 10.358L13.528 10.6738L21.2551 22H16.3906L10.976 14.0642L10.6074 13.524L10.1828 14.0213L3.36948 22H2.88472L10.1452 13.5008L10.3935 13.2101L10.1781 12.8942L2.74635 2H7.61087L12.73 9.50232L13.0986 10.0425L13.5232 9.54518L19.966 2H20.4509L13.5608 10.0673ZM10.2588 12.4006L10.6695 12.1155L10.2588 12.4006L11.0657 13.5631L11.0658 13.5631L16.5617 21.4831L16.7109 21.698H16.9725H19.737H20.6927L20.1478 20.9129L13.4112 11.2079L13.4112 11.2079L12.6043 10.0454L12.6042 10.0454L7.42328 2.57993L7.27412 2.365H7.0125H4.248H3.29225L3.83727 3.15012L10.2588 12.4006Z" fill="#5C5C5C" stroke="#5C5C5C"/>
</svg>
