<svg width="1440" height="1024" viewBox="0 0 1440 1024" fill="none" xmlns="http://www.w3.org/2000/svg">
<path d="M0 31.5H1440M0 79.5H1440M0 127.5H1440M0 175.5H1440M0 223.5H1440M0 271.5H1440M0 319.5H1440M0 367.5H1440M0 415.5H1440M0 463.5H1440M0 511.5H1440M0 559.5H1440M0 607.5H1440M0 655.5H1440M0 703.5H1440M0 751.5H1440M0 799.5H1440M0 847.5H1440M0 895.5H1440M0 943.5H1440M0 991.5H1440M48.5 0L48.5 1024M96.5 0L96.5 1024M144.5 0L144.5 1024M192.5 0L192.5 1024M240.5 0L240.5 1024M288.5 0L288.5 1024M336.5 0L336.5 1024M384.5 0L384.5 1024M432.5 0L432.5 1024M480.5 0L480.5 1024M528.5 0L528.5 1024M576.5 0L576.5 1024M624.5 0L624.5 1024M672.5 0L672.5 1024M720.5 0L720.5 1024M768.5 0L768.5 1024M816.5 0L816.5 1024M864.5 0L864.5 1024M912.5 0L912.5 1024M960.5 0L960.5 1024M1008.5 0L1008.5 1024M1056.5 0V1024M1104.5 0V1024M1152.5 0V1024M1200.5 0V1024M1248.5 0V1024M1296.5 0V1024M1344.5 0V1024M1392.5 0V1024" stroke="url(#paint0_linear_972_573)" stroke-opacity="0.24" stroke-dasharray="8 8"/>
<defs>
<linearGradient id="paint0_linear_972_573" x1="720" y1="0" x2="720" y2="1320.5" gradientUnits="userSpaceOnUse">
<stop stop-color="#3A3A3A" stop-opacity="0.64"/>
<stop offset="0.71" stop-color="#3A3A3A" stop-opacity="0"/>
</linearGradient>
</defs>
</svg>
